<svg width="60" height="61" viewBox="0 0 60 61" fill="none" xmlns="http://www.w3.org/2000/svg">
<path d="M25.1511 0.39201C19.6131 0.91254 15.1028 2.34097 10.7255 4.93152C9.86699 5.45205 9.67352 5.66995 9.67352 6.14206C9.67352 6.71101 9.97582 6.92891 11.5719 7.46154C12.89 7.89734 13.1923 8.0426 13.6155 8.46629C14.0992 8.9384 14.3894 9.59208 14.3894 10.1852C14.3894 10.3305 14.2684 10.8268 14.1354 11.2747C13.9299 11.9284 13.8936 12.3158 13.9299 13.0542C13.9903 13.9863 14.0266 14.0832 15.393 16.8311L16.7956 19.6637L16.1548 19.8453C13.7122 20.5595 12.7328 23.5859 14.3531 25.4743C14.5707 25.7406 15.6106 26.6364 16.6626 27.4717L18.5611 28.997L18.9722 30.2075C19.2019 30.8733 19.6735 32.0233 20.0242 32.7617C20.3869 33.5002 20.6771 34.1296 20.6771 34.1539C20.6771 34.166 18.5973 34.2023 16.058 34.2265L11.4268 34.2628L10.6167 34.6502C9.49214 35.1828 8.79081 35.8607 8.24667 36.9623L7.79927 37.8823L7.763 40.4002L7.71463 42.9302L7.00121 43.2934C5.28416 44.1529 3.68803 45.4845 2.52721 47.0097C1.35429 48.5713 0.423216 50.7866 0.133011 52.8082C0.0604595 53.2803 0 55.0477 0 56.7182V59.7567L0.302297 60.0472L0.592503 60.3499H29.9879H59.3833L59.6856 60.0472L60 59.7325L59.9516 56.1977C59.9033 52.8445 59.8791 52.6024 59.5768 51.4524C58.6457 47.9177 56.2394 44.9276 52.9988 43.3055L52.2612 42.9302L52.2128 40.4002L52.1765 37.8823L51.7291 36.9623C51.185 35.8607 50.4837 35.1828 49.3591 34.6502L48.549 34.2628L43.9299 34.2265C41.3785 34.2023 39.2987 34.1539 39.2987 34.1054C39.2987 34.057 39.3833 33.8875 39.48 33.7423C39.7582 33.367 40.786 30.9096 41.1245 29.8807L41.4027 29.0091L43.3132 27.4838C45.526 25.7043 45.9613 25.2443 46.2515 24.3243C46.8803 22.3269 45.7074 20.3174 43.6155 19.7848C43.3011 19.7122 43.0472 19.6153 43.0472 19.579C43.0472 19.5306 43.5671 18.0537 44.208 16.2985C44.8489 14.5311 45.4414 12.6911 45.5381 12.1947C46.5901 6.67469 42.8174 1.31202 37.243 0.428329C36.5296 0.319378 26.2515 0.283062 25.1511 0.39201ZM37.4002 2.43782C38.4764 2.67992 40.0242 3.40625 40.7739 4.03572C43.5066 6.32364 44.4377 9.78577 43.2527 13.1995C42.6239 14.9911 42.4547 15.4027 42.4547 15.1848C42.4305 14.7248 41.8017 12.8 41.4148 12.0374C40.8706 10.9358 38.4039 7.25575 38.1499 7.15891C37.6542 6.97733 37.3398 7.1347 35.8404 8.33313C34.9819 9.01103 34.0266 9.71314 33.7243 9.89472C32.6965 10.5 31.4389 10.8389 29.7703 10.96C28.0895 11.081 27.5333 11.1779 26.4329 11.5653C25.4172 11.9163 24.8126 12.2674 21.1729 14.7005C19.4075 15.8869 17.8839 16.8916 17.8114 16.94C17.7025 17.0006 17.3761 16.4679 16.7352 15.1727C15.8767 13.4295 15.8283 13.2842 15.8767 12.6547C15.9008 12.2916 16.0218 11.6137 16.1427 11.1537C16.3362 10.4516 16.3482 10.1974 16.2394 9.55577C16.1669 9.13208 15.9734 8.52681 15.8283 8.21207C15.4534 7.42522 14.5224 6.52943 13.7122 6.15416C12.9262 5.791 12.8416 5.88784 14.74 5.02836C17.5091 3.78151 20.9553 2.80098 23.7001 2.49834C24.3289 2.42571 25.0181 2.34097 25.2116 2.31676C25.4172 2.30466 28.0411 2.26834 31.052 2.25624C35.659 2.24413 36.6626 2.28045 37.4002 2.43782ZM38.6094 11.1416C40.3023 13.7321 40.6288 14.8095 40.6288 17.86V19.6758H36.0943H31.5478L31.2576 19.9785C31.0036 20.2206 30.9553 20.3901 30.9553 20.9469V21.6127H29.9879H29.0206V20.9469C29.0206 20.3901 28.9722 20.2206 28.7183 19.9785L28.4281 19.6758H23.8815H19.347V18.9737V18.2595L22.6481 16.0685C24.4498 14.8579 26.2394 13.7321 26.6264 13.5626C27.5091 13.1632 28.7424 12.8968 29.8065 12.8968C32.0193 12.8847 34.3047 12.0132 36.2878 10.4274C36.9166 9.93103 37.4486 9.51945 37.4849 9.51945C37.5212 9.50735 38.029 10.2458 38.6094 11.1416ZM17.4607 22.6659C17.5091 23.259 17.5937 24.179 17.6663 24.7359C17.7388 25.2927 17.7751 25.7648 17.7509 25.7891C17.6542 25.898 15.8888 24.3727 15.6832 24.0096C15.127 23.0048 15.9129 21.649 17.0617 21.6248C17.3761 21.6127 17.3761 21.6248 17.4607 22.6659ZM21.2817 23.259C21.2817 25.3169 21.3906 25.7285 22.1886 26.5154C22.9504 27.2901 23.3978 27.4233 25.1753 27.4233C26.9408 27.4233 27.497 27.2417 28.2104 26.4548C28.8029 25.7891 29.0206 25.208 29.0206 24.2275V23.5496H29.9879H30.9553V24.2275C30.9553 25.2806 31.1729 25.8375 31.8622 26.5154C32.6239 27.2901 33.0713 27.4233 34.8489 27.4233C36.6143 27.4233 37.1705 27.2417 37.8839 26.4548C38.5732 25.6801 38.6941 25.2322 38.6941 23.259V21.6127H39.6735H40.653L40.5683 22.7264C40.399 25.1838 39.8791 27.6412 39.0326 29.9654C38.6578 31.0065 37.6904 33.0886 37.243 33.8028L37.0012 34.2023H29.9879H22.9746L22.7207 33.8028C22.3096 33.1491 21.3422 31.0549 20.9432 29.9654C20.1209 27.7259 19.5768 25.1959 19.4075 22.7264L19.3229 21.6127H20.3023H21.2817V23.259ZM27.0859 23.2469C27.0859 24.8327 27.0738 24.9054 26.7836 25.1838C26.5054 25.4743 26.4087 25.4864 25.1511 25.4864C23.8936 25.4864 23.7969 25.4743 23.5187 25.1838C23.2285 24.9054 23.2164 24.8327 23.2164 23.2469V21.6127H25.1511H27.0859V23.2469ZM36.7594 23.2469C36.7594 24.8327 36.7473 24.9054 36.4571 25.1838C36.179 25.4743 36.0822 25.4864 34.8247 25.4864C33.5671 25.4864 33.4704 25.4743 33.1923 25.1838C32.9021 24.9054 32.89 24.8327 32.89 23.2469V21.6127H34.8247H36.7594V23.2469ZM43.6276 21.8548C44.4256 22.339 44.7037 23.2348 44.2926 24.0096C44.0871 24.3727 42.3337 25.898 42.2249 25.7891C42.2007 25.7648 42.237 25.2927 42.2975 24.7359C42.37 24.179 42.4667 23.259 42.5151 22.6659C42.5877 21.6248 42.5998 21.6127 42.9141 21.6127C43.0834 21.6127 43.4099 21.7217 43.6276 21.8548ZM48.295 36.2844C48.9601 36.4781 49.9637 37.4828 50.1572 38.1486C50.266 38.5239 50.3023 41.1265 50.3023 48.535V58.413H29.9879H9.67352V48.535C9.67352 41.1265 9.70979 38.5239 9.81862 38.1486C10 37.5313 11.0157 36.4902 11.6082 36.2965C12.2491 36.0907 47.6179 36.0907 48.295 36.2844ZM7.73881 51.755V58.413H4.82467H1.91052L1.97098 55.6046C2.01935 53.1714 2.05562 52.6508 2.28537 51.8156C2.85369 49.7698 4.08706 47.8087 5.63482 46.5013C6.28779 45.9445 7.53325 45.1092 7.71463 45.0971C7.72672 45.0971 7.73881 48.0871 7.73881 51.755ZM53.2164 45.6418C54.8609 46.7071 56.445 48.5956 57.1584 50.3387C57.8476 52.0214 57.9444 52.5903 58.0048 55.5924L58.0653 58.413H55.1511H52.237V51.755C52.237 48.0871 52.2733 45.0971 52.3096 45.0971C52.3458 45.0971 52.757 45.3392 53.2164 45.6418Z" fill="#DDFF55"/>
<path d="M21.368 39.5045C19.5542 41.3324 19.3486 41.5866 19.3486 41.9497C19.3486 42.3129 19.5542 42.5671 21.4043 44.4192L23.4599 46.4893L24.1491 45.7993L24.8504 45.0971L23.2785 43.5234L21.7066 41.9497L23.2543 40.4003C24.1007 39.5529 24.79 38.8024 24.79 38.7297C24.79 38.5724 23.6775 37.4708 23.5082 37.4708C23.4478 37.4708 22.4804 38.3908 21.368 39.5045Z" fill="#DDFF55"/>
<path d="M35.7557 38.0518C35.4413 38.3666 35.1874 38.6813 35.1874 38.7418C35.1874 38.8024 35.8767 39.5529 36.7231 40.4003L38.2708 41.9497L36.6989 43.5234L35.127 45.0971L35.8283 45.7993L36.5175 46.4893L38.5731 44.4192C40.4232 42.5671 40.6288 42.3129 40.6288 41.9497C40.6288 41.5866 40.4232 41.3324 38.6094 39.5045C37.497 38.3908 36.5296 37.4708 36.4571 37.4708C36.3845 37.4708 36.0701 37.7371 35.7557 38.0518Z" fill="#DDFF55"/>
<path d="M29.1899 41.4049C27.6179 43.5113 26.3483 45.2545 26.3845 45.2908C26.5901 45.4845 27.7509 46.3076 27.8356 46.3076C27.9686 46.3076 33.6639 38.6933 33.5913 38.6086C33.3858 38.4149 32.2249 37.5918 32.1403 37.5918C32.0919 37.5918 30.7618 39.3107 29.1899 41.4049Z" fill="#DDFF55"/>
<path d="M28.7805 47.954C27.0514 48.5835 25.9994 50.1814 26.1566 51.9367C26.2896 53.3409 26.9667 54.3699 28.2001 55.0357C28.8894 55.4109 29.0466 55.4473 29.9897 55.4473C30.945 55.4473 31.078 55.4109 31.8035 55.0115C34.5967 53.4741 34.4879 49.4914 31.6221 48.1356C30.8362 47.7604 29.5423 47.6756 28.7805 47.954ZM30.7515 49.8667C32.0091 50.3872 32.2993 51.9851 31.3198 52.9657C30.5218 53.7646 29.4335 53.7767 28.6475 52.9778C27.1481 51.4888 28.8047 49.0435 30.7515 49.8667Z" fill="#DDFF55"/>
</svg>
