<svg width="60" height="61" viewBox="0 0 60 61" fill="none" xmlns="http://www.w3.org/2000/svg">
<path d="M28.185 0.369682C26.6264 0.592525 25.4194 0.850555 24.3178 1.20242C18.6108 3.02035 14.1577 7.40684 12.2241 13.1421C11.521 15.2298 11.31 16.602 11.3217 19.0651C11.3217 21.5281 11.5327 22.9355 12.2241 24.988C14.7319 32.4239 21.4233 37.4672 29.2397 37.7839C38.0991 38.1592 45.9858 32.248 48.1655 23.6157C50.7788 13.2008 44.1577 2.77404 33.5757 0.651173C32.4507 0.416599 29.0405 0.240669 28.185 0.369682ZM33.4233 2.52774C36.728 3.23146 39.4702 4.72099 41.9077 7.16054C43.1147 8.36858 44.7202 10.4797 44.6264 10.7612C44.603 10.8199 44.1577 11.0544 43.6421 11.2773L42.7046 11.6878L40.5014 10.8668C38.3803 10.0692 38.2749 10.0223 37.5249 9.3186C36.5171 8.38031 35.7202 8.005 34.7007 8.005C33.6694 8.005 33.0835 8.27475 31.6421 9.41243C29.7319 10.9371 29.6499 11.1483 30.0835 13.7755C30.2475 14.7841 30.435 15.6755 30.5053 15.7693C30.6694 15.957 33.8686 18.115 34.4194 18.3965C34.8764 18.6311 35.5913 18.6428 36.3999 18.4317C36.7632 18.3379 37.0678 18.3144 37.185 18.3731C37.2788 18.4317 37.9116 19.3348 38.5796 20.3904L39.7866 22.2904L39.8452 25.4571C39.9155 29.093 39.8921 28.9757 41.0171 30.3245L41.7436 31.2041L41.2983 31.6029C38.0522 34.4412 34.103 35.9542 29.896 35.9542C28.2905 35.9542 24.9741 35.3678 24.9624 35.0746C24.9507 35.0042 25.1147 34.5351 25.3022 34.019L25.6655 33.0807L27.1655 32.1776C27.9975 31.6733 28.7475 31.1807 28.8413 31.0751C28.9467 30.9461 29.0288 30.4652 29.0639 29.7615L29.1225 28.6473L29.7553 28.4245C30.1069 28.3072 30.4819 28.1313 30.5991 28.0257C30.8686 27.7794 32.5327 24.988 32.7085 24.4837C32.8842 23.9559 32.7905 22.9589 32.5092 22.4077C32.1225 21.6688 31.5249 21.27 30.3999 21.0003L29.3921 20.754L28.9467 19.6632C28.7007 19.0533 28.3491 18.4083 28.1616 18.2089C27.5991 17.6107 27.271 17.5403 25.1147 17.5403H23.146L22.9116 17.1064C22.56 16.473 21.9155 16.0039 21.271 15.9218L20.7319 15.8631L20.7671 15.4292C20.8022 15.0304 20.9663 14.8545 23.146 12.9427C24.435 11.8168 25.56 10.8199 25.6303 10.7143C25.7124 10.6205 25.8999 9.96367 26.0405 9.25995C26.31 7.99327 26.31 7.98154 26.6616 7.94635C27.4936 7.87598 27.7983 7.77042 28.1967 7.43029C28.8999 6.80868 29.1694 6.03459 28.9467 5.23705C28.7592 4.52161 28.3374 4.12283 27.0366 3.38393L25.853 2.7154L26.2397 2.60984C28.1382 2.12897 31.3608 2.08206 33.4233 2.52774ZM25.2671 4.53333C27.5405 5.81175 27.6928 6.04632 26.2514 6.04632C25.3022 6.04632 24.9038 6.19879 24.7397 6.62102C24.6694 6.78522 24.4936 7.53585 24.3413 8.27475L24.0717 9.62354L21.6225 11.7816C20.2632 12.9662 19.103 14.0569 19.021 14.186C18.9389 14.3267 18.8803 14.7607 18.8686 15.1594C18.8686 15.9452 18.81 16.0039 18.2592 15.7928C18.0483 15.7107 17.9194 15.4878 17.7202 14.8545C17.5444 14.3267 17.3569 13.9631 17.1928 13.8576C17.0522 13.7637 16.3139 13.6347 15.5639 13.5526C14.8022 13.4705 14.1811 13.365 14.1811 13.318C14.1811 13.2711 14.3335 12.8606 14.521 12.4149C16.021 8.88464 18.7866 5.90558 22.185 4.12283C22.7475 3.82962 23.2983 3.58332 23.4038 3.58332C23.5092 3.58332 24.353 4.00555 25.2671 4.53333ZM35.0405 9.86984C35.2866 9.92848 35.7319 10.2452 36.3178 10.7847L37.2085 11.6291L39.9741 12.6612L42.7397 13.6934L44.1342 13.1069C45.1421 12.6847 45.5522 12.5557 45.6108 12.6612C45.6577 12.7433 45.8335 13.2125 45.9975 13.7168C47.4858 18.162 47.0405 23.0762 44.7553 27.2164C44.146 28.3306 43.1967 29.6794 43.021 29.6794C42.9624 29.6794 42.6577 29.3628 42.353 28.9874L41.7788 28.2955L41.7202 24.9997L41.6616 21.704L40.2085 19.4404C39.4116 18.1971 38.5913 17.0477 38.3921 16.8953C37.7592 16.4261 37.2202 16.344 36.1538 16.5669L35.2163 16.7545L33.6577 15.7224C32.8139 15.1594 32.1108 14.6551 32.1108 14.6199C32.1108 14.5847 32.0053 13.9631 31.8882 13.2594C31.7592 12.5322 31.7124 11.8872 31.7592 11.7933C31.8999 11.5353 33.9272 9.98713 34.2436 9.8933C34.6186 9.78774 34.6186 9.78774 35.0405 9.86984ZM16.1264 16.0625C16.4663 17.1064 16.5952 17.2823 17.1694 17.4465L17.685 17.599L17.0522 18.0916C16.3257 18.6546 16.2319 18.9243 16.3139 20.2145C16.3491 20.8713 16.5132 21.3873 17.3335 23.4046C18.2592 25.6565 18.6225 26.3368 18.9155 26.3368C18.9741 26.3368 19.4428 26.4541 19.9467 26.5831C21.3999 26.9818 21.5522 27.4627 20.5678 28.5652C19.7358 29.5035 19.6421 29.7498 19.7358 30.8406C19.771 31.3683 19.8413 31.9665 19.8764 32.1893L19.9585 32.5881L19.56 32.3184C18.7046 31.7202 16.7944 29.656 16.021 28.4948C14.1928 25.7503 13.3022 23.0176 13.1616 19.7101C13.103 18.3379 13.3139 16.0039 13.5483 15.394C13.5835 15.2884 13.8647 15.2767 14.7671 15.3588L15.9272 15.4644L16.1264 16.0625ZM21.353 18.3027C21.6225 19.3231 21.7046 19.3465 24.4585 19.4169L26.8608 19.4756L27.3764 20.7657C27.6577 21.4694 27.9975 22.1497 28.1147 22.267C28.2436 22.4077 28.7592 22.5719 29.4272 22.7126C31.2202 23.088 31.3022 23.3343 30.1655 25.246C29.4272 26.5127 29.3803 26.5596 28.8296 26.7473C28.1382 26.9818 27.353 27.7794 27.2592 28.3541C27.2241 28.5652 27.1772 29.0226 27.1538 29.3745L27.1303 30.0196L25.7592 30.8406C24.9975 31.298 24.3061 31.7554 24.2241 31.8492C24.1303 31.943 23.8491 32.5529 23.6147 33.198C23.3686 33.8431 23.146 34.3943 23.1342 34.4178C23.1108 34.4412 22.8882 34.3709 22.6303 34.2536L22.1733 34.0542L21.8569 32.3887C21.6928 31.4856 21.5288 30.6764 21.5053 30.5943C21.4819 30.5122 21.7163 30.1486 22.021 29.7733C23.0288 28.5652 23.2397 27.8615 22.9233 26.7707C22.6538 25.8324 21.8686 25.1522 20.7202 24.8472L19.8647 24.6127L19.021 22.5719C18.4702 21.2231 18.1772 20.3669 18.1772 20.0503C18.1655 19.5811 18.1772 19.5694 19.4194 18.678C20.1225 18.1854 20.8022 17.7749 20.9428 17.7749C21.1655 17.7749 21.2358 17.8805 21.353 18.3027Z" fill="#DDFF55"/>
<path d="M1.875 22.9591C1.23047 23.182 0.304688 24.1789 0.140625 24.8357C0.0351562 25.2345 0 27.6036 0 33.3037C0 41.9712 0.0117188 42.194 0.691406 43.836C1.17188 44.9619 1.52344 45.4194 6.77344 51.6355L11.25 56.9486V58.4146C11.25 59.7282 11.2734 59.9042 11.4844 60.1153C11.707 60.3381 11.8711 60.3499 17.8125 60.3499C23.7539 60.3499 23.918 60.3381 24.1406 60.1153C24.3633 59.8924 24.375 59.7282 24.375 54.8374C24.375 49.0904 24.3281 48.6447 23.5312 46.9793C23.1445 46.17 22.8633 45.7947 22.043 44.9737C20.8828 43.8243 19.9688 43.2965 18.3516 42.8743L17.332 42.6045L14.7656 39.9773L12.1875 37.3501V33.5735C12.1875 29.4802 12.1406 29.0932 11.5312 27.9907C10.8516 26.724 9.38672 25.7974 7.88672 25.6684L7.07812 25.598L6.79688 25.0937C6.16406 23.8857 4.61719 22.9474 3.14062 22.877C2.67188 22.8418 2.09766 22.8887 1.875 22.9591ZM4.06641 25.0351C4.58203 25.2931 5.03906 25.7622 5.34375 26.3369C5.55469 26.724 5.56641 27.2049 5.625 33.6087C5.69531 41.0563 5.67188 40.8218 6.375 41.8891C6.52734 42.1471 8.17969 43.8946 10.043 45.7829C13.125 48.9262 13.4531 49.2194 13.8047 49.2077C14.3203 49.2077 14.7656 48.762 14.7656 48.2577C14.7656 47.9176 14.4141 47.5188 11.3789 44.4693C8.46094 41.5255 7.96875 40.986 7.86328 40.552C7.5 39.2149 8.76562 37.96 10.1367 38.3118C10.5352 38.4174 11.0742 38.8983 13.4883 41.3144C15.0703 42.8977 16.4414 44.2348 16.5352 44.2817C16.6289 44.3403 17.1562 44.4928 17.6953 44.6335C18.9844 44.9619 19.9336 45.4663 20.7656 46.2873C21.5273 47.0379 22.1836 48.2577 22.3828 49.3133C22.4531 49.6651 22.5 51.8114 22.5 54.2041V58.4733H17.8125H13.125V57.3591V56.2566L8.29688 50.533C5.63672 47.3898 3.24609 44.4811 2.97656 44.094C2.70703 43.6953 2.36719 43.0385 2.21484 42.628L1.93359 41.8773L1.89844 33.5735L1.86328 25.2814L2.16797 24.9764C2.44922 24.6949 2.54297 24.6715 3.04688 24.7301C3.36328 24.7653 3.82031 24.9061 4.06641 25.0351ZM8.73047 27.8265C9.23438 28.0845 9.71484 28.5536 9.99609 29.0932C10.2422 29.5389 10.2539 29.7382 10.2891 32.9753L10.3242 36.4001H9.5625C8.98828 36.4001 8.625 36.4822 8.14453 36.705L7.5 36.9982V32.2364V27.4863L7.93359 27.5684C8.17969 27.6154 8.53125 27.7327 8.73047 27.8265Z" fill="#DDFF55"/>
<path d="M56.0977 22.9474C54.9727 23.2171 53.6953 24.1554 53.2031 25.0937L52.9219 25.598L52.1133 25.6684C50.6133 25.7974 49.1484 26.724 48.4688 27.9907C47.8594 29.0932 47.8125 29.4802 47.8125 33.5735V37.3501L45.2344 39.9773L42.668 42.6045L41.6484 42.8743C40.0312 43.2965 39.1172 43.8243 37.957 44.9737C37.1367 45.7947 36.8555 46.17 36.4688 46.9793C35.6719 48.6447 35.625 49.0904 35.625 54.8374C35.625 59.7282 35.6367 59.8924 35.8594 60.1153C36.082 60.3381 36.2461 60.3499 42.1875 60.3499C48.1289 60.3499 48.293 60.3381 48.5156 60.1153C48.7266 59.9042 48.75 59.7282 48.75 58.4146V56.9368L53.2266 51.6355C58.4766 45.4194 58.8281 44.9619 59.3086 43.836C59.9883 42.194 60 41.9712 60 33.3037C60 27.8148 59.9648 25.2227 59.8711 24.8591C59.6836 24.132 58.875 23.2523 58.1602 23.006C57.5742 22.8066 56.8008 22.7832 56.0977 22.9474ZM57.8438 24.9882L58.1367 25.2814L58.1016 33.5148C58.0664 41.7483 58.0664 41.76 57.7969 42.5459C57.6562 42.9798 57.3047 43.6718 57.0352 44.0706C56.7656 44.4811 54.3633 47.3898 51.7031 50.533L46.875 56.2566V57.3591V58.4733H42.1875H37.5V54.2041C37.5 51.8114 37.5469 49.6651 37.6172 49.3133C37.8164 48.2577 38.4727 47.0379 39.2344 46.2873C40.0664 45.4663 41.0156 44.9619 42.3047 44.6335C42.8438 44.4928 43.3711 44.3403 43.4531 44.2934C43.5469 44.2348 44.918 42.8977 46.5117 41.3144C48.8906 38.9452 49.4766 38.4174 49.8633 38.3118C51.2227 37.9483 52.5 39.2032 52.1367 40.552C52.0312 40.986 51.5391 41.5255 48.6211 44.4693C45.5859 47.5188 45.2344 47.9176 45.2344 48.2577C45.2344 48.762 45.6797 49.2077 46.1953 49.2077C46.5469 49.2194 46.8633 48.9262 49.8984 45.8416C51.7266 43.9885 53.3789 42.2409 53.5664 41.9712C54.3281 40.8804 54.3047 41.1502 54.375 33.6087C54.4453 26.0555 54.3984 26.4308 55.1836 25.598C55.9688 24.7536 57.293 24.4486 57.8438 24.9882ZM52.5 32.2482V36.9982L51.8438 36.6933C51.3633 36.4704 50.9766 36.3883 50.4258 36.3883L49.6758 36.3766L49.7109 32.9753C49.7461 29.9142 49.7695 29.5154 49.9688 29.1518C50.3789 28.3777 50.9883 27.8617 51.7969 27.6154C52.5586 27.3925 52.5 27.0172 52.5 32.2482Z" fill="#DDFF55"/>
</svg>
