<svg width="60" height="61" viewBox="0 0 60 61" fill="none" xmlns="http://www.w3.org/2000/svg">
<path d="M29.0005 2.82714V5.32812H30.0005H31.0005V2.82714V0.326148H30.0005H29.0005V2.82714Z" fill="#DDFF55"/>
<path d="M13.964 4.30273C13.639 4.62786 13.3765 4.95298 13.3765 5.01551C13.3765 5.09054 14.2515 6.0159 15.314 7.07882L17.2516 9.01709L17.9641 8.2918L18.6891 7.57902L16.7516 5.64076C15.689 4.57784 14.764 3.70249 14.689 3.70249C14.614 3.70249 14.289 3.9776 13.964 4.30273Z" fill="#DDFF55"/>
<path d="M43.277 5.61577C42.2395 6.66619 41.377 7.57905 41.377 7.64157C41.377 7.80414 42.527 8.95459 42.6895 8.95459C42.7645 8.95459 43.6895 8.07924 44.752 7.01632L46.6896 5.07806L46.0021 4.39029C45.6271 4.01514 45.2896 3.70251 45.2521 3.70251C45.2146 3.70251 44.327 4.56536 43.277 5.61577Z" fill="#DDFF55"/>
<path d="M27.1879 7.52898C19.7877 8.52937 13.625 12.9561 10.2624 19.6963C7.07481 26.0488 7.29982 33.8894 10.8374 40.1419C12.775 43.5807 15.9126 46.707 19.2502 48.5327C20.9377 49.458 21.3127 49.7582 21.6377 50.4334C21.9252 51.0087 21.9377 51.1587 22.0002 54.5976C22.0502 57.7488 22.0877 58.2115 22.3002 58.6367C22.6002 59.2494 23.4878 60.0122 24.1003 60.1998C24.4503 60.3123 26.3378 60.3498 30.5255 60.3498C37.3382 60.3498 37.2507 60.3624 38.1632 59.3495C38.4632 59.0243 38.7757 58.5241 38.8507 58.249C38.9507 57.9239 39.0007 56.6484 39.0007 54.4725C39.0007 52.2341 39.0507 51.0212 39.1507 50.671C39.3632 49.9707 40.2632 49.1204 41.9508 48.0325L43.3383 47.1446L43.8633 47.6073C45.1634 48.7578 47.0009 48.7328 48.1885 47.5323C49.401 46.3318 49.4135 44.5061 48.2385 43.1806L47.7509 42.6178L48.376 41.68C51.5886 36.7905 52.7261 30.6381 51.501 24.7358C50.626 20.5716 48.401 16.57 45.2259 13.5063C40.4132 8.8545 33.7256 6.64112 27.1879 7.52898ZM33.7506 9.69233C41.8133 11.2805 48.026 17.5079 49.651 25.6236C50.0135 27.4619 50.051 31.1383 49.7135 32.964C49.2635 35.44 48.351 37.866 47.1009 39.9418L46.3259 41.2298L43.7883 38.6913C42.3883 37.2907 41.2508 36.1153 41.2508 36.0653C41.2508 36.0277 41.4383 35.6651 41.6633 35.2774L42.0633 34.5647L44.0883 34.6522L46.1134 34.7397L46.1884 34.4396C46.4509 33.3017 47.1134 29.7878 47.0634 29.7252C47.0384 29.6752 46.2009 29.3376 45.2009 28.975C43.2008 28.2372 43.3508 28.3872 43.1883 27.0242L43.1258 26.3989L44.7134 25.3985C45.5759 24.8483 46.3384 24.3606 46.4009 24.3231C46.4884 24.2731 44.5259 19.8213 44.3259 19.6213C44.3008 19.5962 43.4258 19.8088 42.3883 20.0964L40.4882 20.6342L39.8132 19.9464L39.1257 19.2711L39.8132 17.4954C40.1882 16.52 40.5007 15.6697 40.5007 15.6072C40.5007 15.4946 36.2506 13.0812 36.0506 13.0812C35.9881 13.0937 35.4131 13.7689 34.7631 14.5818C34.1131 15.4071 33.5255 16.0824 33.4505 16.0824C33.3255 16.0824 32.8505 15.9823 31.9255 15.7697C31.7005 15.7197 31.588 15.4321 31.188 13.9565C30.9255 13.0061 30.663 12.1433 30.613 12.0683C30.5505 11.9557 29.9129 11.9932 28.0504 12.1933C26.6879 12.3309 25.5378 12.4934 25.4753 12.556C25.4253 12.606 25.3628 13.4938 25.3503 14.5192L25.3128 16.395L24.5003 16.7951C24.0503 17.0202 23.6628 17.1953 23.6253 17.1953C23.5878 17.2078 22.9128 16.6951 22.1252 16.0699C21.3377 15.4321 20.6252 14.8819 20.5502 14.8194C20.4377 14.7193 18.4251 16.4075 16.8876 17.8956L16.5876 18.1957L17.7126 19.8588L18.8501 21.522L18.3876 22.3223L17.9376 23.1101L15.9126 23.0226C14.025 22.9351 13.9 22.9476 13.8375 23.1602C13.6875 23.6979 12.85 27.9746 12.8875 28.0121C12.9125 28.0246 13.7625 28.3372 14.775 28.7123C16.8251 29.4376 16.6126 29.2376 16.8126 30.6881L16.8751 31.2133L15.225 32.2888C14.3125 32.889 13.55 33.3892 13.525 33.4017C13.4875 33.4392 15.575 37.9535 15.6626 38.0535C15.7001 38.0785 16.5751 37.866 17.6126 37.5783L19.5127 37.0406L20.1877 37.7284L20.8627 38.4037L20.1877 40.1544C19.8127 41.1172 19.5002 41.9676 19.5002 42.0426C19.5002 42.1677 23.7253 44.5936 23.9503 44.5936C24.0128 44.5811 24.5878 43.9058 25.2378 43.093C25.8753 42.2677 26.4629 41.5924 26.5504 41.5924C26.6754 41.5924 27.1379 41.6925 28.0754 41.9051C28.3004 41.9551 28.4129 42.2427 28.8129 43.7058C29.0629 44.6561 29.3254 45.5065 29.3754 45.594C29.4504 45.7191 29.9879 45.6941 31.9505 45.4815C33.313 45.3314 34.4506 45.1814 34.4881 45.1438C34.5256 45.1063 34.5756 44.2185 34.6006 43.1681L34.6381 41.2548L35.6256 40.8171L36.6006 40.367L39.2507 43.0305L41.9133 45.6941L40.3007 46.757C39.4132 47.3322 38.5757 47.9324 38.4507 48.07L38.2132 48.3451H30.4005H22.6002L22.1627 47.97C21.9252 47.7574 21.3627 47.4072 20.9002 47.1696C15.4875 44.4311 11.5874 39.2165 10.3499 33.0641C9.94989 31.0508 9.94989 27.6494 10.3499 25.6236C11.4749 19.9714 14.7875 15.2195 19.6877 12.2058C21.9002 10.8428 24.9253 9.80488 27.6754 9.45474C29.1004 9.27967 32.2505 9.40472 33.7506 9.69233ZM29.6004 15.7697C29.8379 16.6576 30.0505 17.4079 30.063 17.4204C30.0755 17.4454 30.9255 17.6205 31.9505 17.833C32.9755 18.0331 33.9381 18.2332 34.0881 18.2707C34.3131 18.3207 34.5381 18.1082 35.4381 16.9577L36.5256 15.5822L37.2632 15.9823C37.6632 16.2074 38.0007 16.445 38.0007 16.5075C38.0007 16.5826 37.7382 17.3203 37.4132 18.1707L36.8381 19.6963L38.0882 21.0468C40.0132 23.1226 39.6257 22.9476 41.3508 22.4724C42.1508 22.2473 42.9133 22.0347 43.0258 22.0097C43.2008 21.9597 43.3258 22.1097 43.5633 22.66C43.7383 23.0601 43.8633 23.4478 43.8383 23.5103C43.8008 23.5853 43.1633 24.0355 42.4258 24.5107C41.6758 24.9859 41.0508 25.386 41.0258 25.3985C40.9883 25.4361 41.4883 29.7628 41.5383 29.7753C41.5508 29.7878 42.2883 30.0504 43.1758 30.3755C44.0633 30.7006 44.8009 30.9757 44.8259 30.9882C44.8384 31.0133 44.7759 31.3884 44.6759 31.8386L44.4884 32.6514L42.7133 32.5639C41.7383 32.5138 40.9258 32.5138 40.9008 32.5639C40.8883 32.6139 40.6132 33.0891 40.3007 33.6393L39.7257 34.6147L38.8757 33.7768L38.0257 32.939L38.3132 32.2262C40.2882 27.3868 37.7257 21.9222 32.688 20.2465C31.8005 19.9464 31.5005 19.9089 30.0005 19.9089C28.5379 19.9214 28.1879 19.9589 27.3504 20.234C25.8628 20.7217 24.8003 21.3845 23.6753 22.5099C22.5502 23.6353 21.9002 24.6983 21.4002 26.1863C21.1127 27.0242 21.0752 27.3618 21.0752 28.8374C21.0752 30.338 21.1127 30.6381 21.4127 31.526C21.8377 32.8265 22.5002 33.9394 23.4378 34.9523C25.7378 37.4283 29.2004 38.3912 32.488 37.4658L33.413 37.2032L34.2131 37.991C34.6506 38.4162 35.0006 38.8038 35.0006 38.8539C35.0006 38.8914 34.5006 39.1415 33.8756 39.4166C32.7755 39.8793 32.7505 39.9043 32.738 40.3419C32.7255 40.5795 32.688 41.3673 32.638 42.0926L32.563 43.4057L31.763 43.5057C31.3255 43.5557 30.9255 43.5557 30.8755 43.5057C30.8255 43.4557 30.6005 42.7054 30.3755 41.8425C30.138 40.9797 29.9504 40.2669 29.9379 40.2544C29.9254 40.2294 29.0754 40.0543 28.0504 39.8417C27.0254 39.6417 26.0628 39.4416 25.9128 39.4041C25.6878 39.354 25.4628 39.5791 24.5503 40.7171L23.4628 42.0926L22.7252 41.6925C22.3252 41.4674 22.0002 41.2298 22.0002 41.1548C22.0002 41.0922 22.2627 40.3419 22.5752 39.5041L23.1628 37.9785L21.9127 36.628C19.9877 34.5647 20.3752 34.7272 18.6501 35.2024C17.8501 35.4275 17.0876 35.6401 16.9626 35.6651C16.7876 35.7151 16.6751 35.5776 16.4251 35.0148C16.2501 34.6272 16.1376 34.2395 16.1626 34.1645C16.2001 34.0895 16.8376 33.6268 17.5751 33.1641C18.3251 32.6889 18.9501 32.2888 18.9751 32.2763C19.0001 32.2512 18.5001 27.912 18.4626 27.887C18.4501 27.887 17.7126 27.6244 16.8251 27.2993C15.9376 26.9742 15.2 26.6991 15.175 26.674C15.15 26.649 15.225 26.1989 15.4375 25.2735C15.4875 25.0359 15.55 25.0234 17.2626 25.1109C18.2376 25.1735 19.0501 25.1985 19.0626 25.1735C19.3377 24.7608 21.1252 21.522 21.1252 21.4345C21.1252 21.3719 20.7002 20.6842 20.1877 19.9214L19.2376 18.5333L19.8502 17.9206L20.4752 17.3078L21.8752 18.4333L23.2753 19.5462L25.2503 18.6584L27.2254 17.7705L27.3129 16.2074C27.3504 15.3446 27.4004 14.5568 27.4129 14.4567C27.4379 14.3317 27.6504 14.2441 28.0629 14.1941C29.2004 14.0566 29.1129 13.969 29.6004 15.7697ZM32.263 22.2348C34.1256 22.9226 35.4381 24.073 36.2506 25.7612C37.5757 28.5123 37.0631 31.626 34.9256 33.7643C32.2005 36.4779 27.8004 36.5029 25.1003 33.8019C23.7003 32.4013 23.0628 30.8632 23.0628 28.8374C23.0628 26.8616 23.6878 25.311 25.0128 23.9605C26.0128 22.9476 27.2629 22.2598 28.6879 21.9472C29.5629 21.7596 31.3505 21.9097 32.263 22.2348ZM42.0383 39.8167C46.6759 44.4686 47.1259 44.9438 47.1259 45.3314C47.1259 45.8941 46.5509 46.4694 45.9884 46.4694C45.6009 46.4694 45.1259 46.0192 40.4257 41.3298L35.2756 36.1778L36.0506 35.4525C36.4631 35.0524 36.8381 34.7272 36.8756 34.7147C36.9131 34.7147 39.2382 37.0156 42.0383 39.8167ZM37.0756 50.7335C37.0381 50.9461 37.0006 51.6214 37.0006 52.2341V53.3471H30.5005H24.0003V52.3092C24.0003 51.7464 23.9503 51.0712 23.8878 50.8086L23.7753 50.3459H30.463H37.1632L37.0756 50.7335ZM37.0006 56.5358C37.0006 57.6363 36.9756 57.7613 36.6881 58.0364L36.3881 58.3491H30.5005H24.6128L24.3128 58.0364C24.0253 57.7613 24.0003 57.6363 24.0003 56.5358V55.3479H30.5005H37.0006V56.5358Z" fill="#DDFF55"/>
<path d="M3.97355 12.3557L3.37354 13.106L5.88611 15.1068C7.26114 16.2072 8.39868 17.0951 8.42368 17.07C8.43618 17.045 8.71118 16.6949 9.03619 16.2947L9.62371 15.5569L7.13614 13.5687C5.7736 12.4807 4.63607 11.5804 4.61107 11.5804C4.58607 11.5929 4.29856 11.9305 3.97355 12.3557Z" fill="#DDFF55"/>
<path d="M52.8503 13.569L50.3877 15.5447L51.0252 16.32C51.5877 17.0203 51.6752 17.0828 51.8502 16.9203C52.0002 16.7952 56.2504 13.4064 56.6129 13.1313C56.6629 13.0938 55.5128 11.6557 55.3878 11.6182C55.3503 11.6057 54.2003 12.481 52.8503 13.569Z" fill="#DDFF55"/>
<path d="M0 27.3368V28.3372H3.00008H6.00017V27.3368V26.3364H3.00008H0V27.3368Z" fill="#DDFF55"/>
<path d="M54 27.3368V28.3372H57.0001H60.0002V27.3368V26.3364H57.0001H54V27.3368Z" fill="#DDFF55"/>
<path d="M4.37361 38.7286C3.23608 39.4164 2.12355 40.0792 1.91105 40.2167L1.49854 40.4543L1.94855 41.2171C2.19855 41.6298 2.46106 42.0049 2.52356 42.0424C2.62357 42.105 7.4987 39.2788 7.4987 39.1538C7.4987 39.0788 6.59868 37.5907 6.51117 37.5407C6.47367 37.5156 5.51115 38.0534 4.37361 38.7286Z" fill="#DDFF55"/>
<path d="M52.9515 38.3538C52.7015 38.7665 52.5015 39.1416 52.5015 39.1916C52.5015 39.2667 54.3015 40.3671 56.8766 41.8677L57.4516 42.2053L57.9141 41.4175C58.1641 40.9923 58.3766 40.5797 58.3766 40.5172C58.3641 40.3921 53.7265 37.591 53.5265 37.591C53.464 37.591 53.2015 37.9286 52.9515 38.3538Z" fill="#DDFF55"/>
</svg>
