<svg width="60" height="61" viewBox="0 0 60 61" fill="none" xmlns="http://www.w3.org/2000/svg">
<path d="M28.8141 0.447254C27.8395 0.72876 26.9589 1.3387 26.3483 2.17149C26.1722 2.39435 24.6223 5.45575 22.8963 8.97461C21.1703 12.4935 19.6204 15.5431 19.4677 15.7543C19.0685 16.2938 18.411 16.6926 17.7299 16.8216C17.4012 16.8803 14.1605 17.3612 10.5088 17.889C6.85714 18.4051 3.58121 18.9212 3.22896 19.0151C1.92564 19.3787 0.986301 20.1997 0.363992 21.5252C0.0469667 22.2055 0 22.4049 0 23.3433C0 24.2816 0.0469667 24.481 0.363992 25.1731C0.810176 26.0997 0.739726 26.0293 6.96282 32.0935C9.56947 34.627 11.7769 36.8556 11.8708 37.0433C12.2701 37.8057 12.2231 38.3218 10.9198 45.8053C9.56947 53.5937 9.55773 53.711 10.0391 55.0012C10.3914 55.9161 11.2603 56.8427 12.2466 57.3236C12.9863 57.6873 13.1037 57.7107 14.2661 57.7107H15.499L16.591 57.1477C17.1898 56.8427 17.7065 56.5964 17.7299 56.5964C17.7417 56.5964 17.7887 57.0656 17.8121 57.6403C17.8474 58.5787 17.8826 58.7429 18.1996 59.1886C18.4227 59.5053 18.7867 59.822 19.1859 60.0214C19.8082 60.3499 19.82 60.3499 22.0978 60.3499C24.364 60.3499 24.3757 60.3499 24.6575 60.0566C25.0333 59.693 25.0333 59.2473 24.6575 58.8837C24.3757 58.5904 24.3523 58.5904 22.1918 58.5904C20.1722 58.5904 20.0078 58.5787 19.7847 58.3558C19.5616 58.133 19.5499 57.9688 19.5499 55.4469C19.5499 52.8664 19.5616 52.7491 19.7965 52.538C20.0313 52.3269 20.3718 52.3151 30 52.3151C39.6282 52.3151 39.9687 52.3269 40.2035 52.538C40.4384 52.7491 40.4501 52.8664 40.4501 55.4352C40.4501 58.0391 40.4384 58.1212 40.1918 58.3558C39.9452 58.5904 39.816 58.5904 33.9217 58.5904C28.0274 58.5904 27.91 58.5904 27.6047 58.8367C27.182 59.1652 27.182 59.7751 27.6047 60.1035C27.91 60.3499 28.0274 60.3499 34.0509 60.3499H40.1918L40.8141 60.0214C41.2133 59.822 41.5773 59.5053 41.8004 59.1886C42.1174 58.7429 42.1526 58.5787 42.1879 57.6403C42.2113 57.0656 42.2583 56.5964 42.2701 56.5964C42.2935 56.5964 42.8102 56.8427 43.409 57.1594L44.501 57.7107H45.7339C46.8963 57.7107 47.0137 57.6873 47.7534 57.3236C48.7397 56.8427 49.6086 55.9161 49.9609 55.0012C50.4423 53.711 50.4305 53.5937 49.0802 45.8053C47.7769 38.3101 47.7299 37.8057 48.1292 37.0433C48.2231 36.8556 50.407 34.6505 52.9785 32.1404C59.2485 26.041 59.1898 26.0997 59.6243 25.1848C59.953 24.481 60 24.2816 60 23.3433C60 22.4049 59.953 22.2055 59.636 21.5252C59.2016 20.5985 58.7084 20.0238 57.9687 19.5546C57.1937 19.0503 56.5127 18.8978 53.2485 18.4286C45.2524 17.2908 42.1174 16.8099 41.7887 16.7044C41.589 16.6457 41.2016 16.3994 40.9315 16.1765C40.5205 15.8246 40.227 15.3085 39.1703 13.1503C38.0783 10.91 37.8552 10.5229 37.5499 10.3939C36.9511 10.1476 36.3405 10.5464 36.3405 11.1915C36.3405 11.6372 38.8885 16.5753 39.4168 17.1383C39.9804 17.7483 40.6849 18.194 41.4364 18.4169C41.7299 18.5107 45.1233 19.0268 48.9863 19.5898C52.8493 20.1411 56.2427 20.6807 56.5245 20.7862C57.5108 21.1381 58.2975 22.2876 58.2975 23.355C58.2975 23.8594 58.0039 24.6452 57.6869 25.0206C57.5342 25.1965 55.1742 27.5307 52.4266 30.205C49.6791 32.8793 47.2955 35.237 47.1194 35.4364C46.9315 35.6475 46.6497 36.1167 46.4853 36.4803C45.91 37.7236 45.9335 37.9348 47.319 45.9812C48.1879 51.0014 48.5519 53.3943 48.5049 53.6992C48.3522 54.6493 47.6947 55.4821 46.8258 55.8575C46.6145 55.9396 46.1331 56.0099 45.7339 56.0099C45.0998 56.0099 44.8885 55.9396 43.6204 55.2827L42.2113 54.5672V53.5585C42.2113 52.3386 41.9883 51.7873 41.272 51.1774C40.8023 50.7668 40.0391 50.4971 39.3816 50.4971C39.1468 50.4971 39.1468 50.4384 39.182 48.116C39.2172 45.8053 39.229 45.7349 39.5342 45.1484C39.7104 44.82 40.2505 44.1162 40.7436 43.5767C41.8474 42.3802 42.5049 41.4184 42.9393 40.398C43.3151 39.4948 43.6204 37.8878 43.6204 36.7853C43.6204 34.8499 43.2094 31.7885 42.6106 29.2901C42.3992 28.3635 42.3288 27.7418 42.3288 26.6979C42.3288 25.1027 42.1644 24.4927 41.5538 23.7772C41.3307 23.5075 40.8611 23.1556 40.5088 22.9914C39.9335 22.7099 39.7691 22.6747 38.9589 22.7333C38.454 22.7568 37.9256 22.8272 37.7847 22.8741C37.5499 22.9445 37.5147 22.921 37.5147 22.6747C37.5147 22.2172 36.9511 21.2202 36.4344 20.7628C35.7182 20.1059 35.0254 19.8479 34.0274 19.8479C33.3581 19.8479 33.0646 19.9065 32.5832 20.1411L31.9726 20.4461L31.2446 19.7188C30.728 19.191 30.364 18.933 29.953 18.7922C29.225 18.5459 28.2035 18.5342 27.499 18.7805C26.9237 18.9799 25.9374 19.7775 25.6791 20.2584L25.5264 20.5399L24.8219 20.188C23.4599 19.5194 21.863 19.7892 20.7828 20.8683C19.8082 21.8419 19.7495 22.0999 19.6908 25.7713L19.6556 28.903L19.2564 29.208C18.2935 29.9352 17.1546 31.9996 16.7084 33.806C16.3444 35.2722 16.3444 37.8409 16.7202 39.1781C17.1898 40.9141 18.0822 42.5093 19.5969 44.3273L20.3718 45.254V47.8697C20.3718 50.7551 20.4423 50.4971 19.5969 50.673C19.092 50.7668 18.2701 51.4941 18.0117 52.0688C17.8591 52.4207 17.7887 52.8312 17.7887 53.5585V54.5789L16.3796 55.2944C15.1115 55.9396 14.8885 56.0099 14.2544 56.0099C13.8669 56.0099 13.3855 55.9396 13.1742 55.8575C12.3053 55.4821 11.6477 54.6493 11.4951 53.6992C11.4481 53.3943 11.8121 51.0014 12.681 45.9812C14.0665 37.97 14.09 37.7119 13.5382 36.5272C13.3738 36.1753 13.092 35.7062 12.9041 35.4833C12.7162 35.2487 10.3209 32.8793 7.57339 30.205C4.82583 27.5307 2.46575 25.1965 2.31311 25.0206C1.99609 24.6452 1.70254 23.8594 1.70254 23.355C1.70254 22.2876 2.48924 21.1381 3.47554 20.7862C3.75734 20.6807 7.13894 20.1411 10.9902 19.5898C14.8297 19.0385 18.1879 18.5342 18.4462 18.4638C19.2564 18.2409 19.9491 17.8069 20.5362 17.1853C21.0059 16.6809 21.6164 15.5431 24.411 9.87778C27.3346 3.96611 27.7926 3.10985 28.2153 2.74623C29.2838 1.83133 30.7162 1.83133 31.773 2.73451C32.1487 3.06293 32.501 3.64941 33.5225 5.69034C34.227 7.09789 34.8845 8.27084 34.9902 8.31775C35.6008 8.55235 36.2348 8.20046 36.2466 7.62571C36.2466 7.41458 35.7769 6.31201 35.0607 4.83409C33.6869 1.99555 33.1115 1.26832 31.8669 0.705303C31.0098 0.329956 29.6595 0.212662 28.8141 0.447254ZM29.6243 20.5868C29.8356 20.7158 30.1057 20.9856 30.2348 21.1968C30.4579 21.5604 30.4697 21.795 30.4697 24.9502V28.3283H28.7084H26.9472V24.9502C26.9472 21.795 26.9589 21.5604 27.182 21.1968C27.6751 20.3874 28.8141 20.0942 29.6243 20.5868ZM24.0117 21.7832C24.998 22.2876 25.0098 22.3345 25.045 25.5249L25.0802 28.34L23.2838 28.3048L21.4873 28.2696L21.4521 25.8299C21.4403 24.3872 21.4755 23.2025 21.546 22.9327C21.7456 22.182 22.5088 21.5838 23.3072 21.5369C23.4129 21.5252 23.7299 21.6425 24.0117 21.7832ZM34.9902 21.8653C35.1898 21.9709 35.4599 22.2993 35.6125 22.5808C35.8708 23.0969 35.8826 23.1556 35.8474 26.651L35.8121 30.1816L35.4481 30.639C34.9902 31.2138 34.3092 31.4718 33.6751 31.3076L33.229 31.202L33.2642 30.5921C33.3229 29.7241 33.1233 29.1142 32.6419 28.6919L32.2309 28.34V25.8299C32.2309 24.4458 32.2661 23.1556 32.3014 22.9562C32.4658 22.1586 33.499 21.4548 34.2857 21.5956C34.4853 21.6307 34.8023 21.7598 34.9902 21.8653ZM39.863 24.6335C40.5323 24.9737 40.5675 25.1848 40.5675 28.6567C40.5675 31.7416 40.5558 31.8237 40.2975 32.2108C40.1448 32.4336 39.8395 32.6799 39.5812 32.7738C38.9706 33.0084 38.2779 32.7738 37.9022 32.2108C37.6321 31.8237 37.6321 31.7533 37.6321 28.6567C37.6321 25.2082 37.6673 24.9854 38.3131 24.6452C38.7241 24.4106 39.4286 24.4106 39.863 24.6335ZM31.5264 30.2285C31.5264 30.6507 31.2564 31.2489 30.9159 31.5774C30 32.4571 28.4853 32.762 26.1135 32.5509C25.2798 32.4688 24.4814 32.4336 24.3288 32.4805C23.589 32.6682 23.1546 33.4189 23.4129 34.064C23.4951 34.24 23.9296 34.7326 24.3992 35.1549C25.6556 36.2926 26.2427 37.5711 26.2427 39.1898C26.2427 39.8467 26.2779 39.9522 26.5479 40.1634C27.1468 40.6325 27.8043 40.3276 27.9569 39.5182C28.1918 38.2749 27.4755 35.9173 26.5479 34.803C26.3718 34.6153 26.2427 34.4394 26.2427 34.4159C26.2427 34.3925 26.8415 34.369 27.5695 34.3573C29.4951 34.3455 31.0568 33.8646 31.9374 33.0201L32.2896 32.6799L32.9354 32.9028C33.9217 33.243 34.6027 33.1843 35.8826 32.6213C36.0235 32.5626 36.1174 32.633 36.2231 32.9028C36.5871 33.7708 38.0431 34.6622 39.0998 34.6622C39.7339 34.6622 40.6145 34.3338 41.1194 33.8998L41.6008 33.4893L41.7065 34.2752C41.7534 34.7209 41.8004 35.7883 41.8004 36.6562C41.8004 37.97 41.7534 38.3805 41.5421 39.0608C41.1663 40.222 40.5675 41.1721 39.3699 42.4741C38.3131 43.6236 37.7613 44.5502 37.5264 45.5707C37.456 45.8639 37.3973 47.0838 37.3973 48.2919V50.4971H29.7652H22.1448L22.1096 47.5881L22.0744 44.6675L21.7573 44.21C21.5812 43.9637 21.0646 43.3069 20.6184 42.7556C18.6575 40.3745 17.8826 37.8761 18.2583 35.1901C18.5401 33.1609 19.5382 31.1316 20.5949 30.4279L21.1115 30.0877H26.3249C30.411 30.0877 31.5264 30.1229 31.5264 30.2285Z" fill="#DDFF55"/>
</svg>
